<svg xmlns="http://www.w3.org/2000/svg" version="1.1" xmlns:xlink="http://www.w3.org/1999/xlink" xmlns:svgjs="http://svgjs.dev/svgjs" viewBox="0 0 800 800"><g stroke-width="2" stroke="hsl(0, 0%, 100%)" fill="none"><path d="M1058.62109062442 -199.2635068810239C1187.6562860443687 104.18328682275535 931.1699307738088 986.7804761549946 659.6003447986527 1173.809880900479C388.0307588234966 1360.8392856459632 -115.87772663638191 1001.9244296010772 -244.91292205633061 698.4776358972981C-373.9481174762793 395.03084219351877 -231.33817919225447 -95.70532413217416 40.23140678290156 -282.7347288776583C311.80099275805776 -469.7641336231426 929.5858952044712 -502.71030058480306 1058.62109062442 -199.2635068810239C1187.6562860443687 104.18328682275535 931.1699307738088 986.7804761549946 659.6003447986527 1173.809880900479 "></path><path d="M1028.6837821949364 -172.02430234461713C1151.8537414594327 117.62945528171747 907.0258568829895 960.1085905534003 647.8003429976129 1138.6366587195446C388.5748291122368 1317.1647268856887 -92.42872519037451 974.5641824792065 -215.59868445487098 684.9104248528718C-338.7686437193675 395.25666722653705 -202.64097535734373 -73.17330972071522 56.58453852803257 -251.7013778868593C315.8100524134088 -430.22944605300324 905.5138229304398 -461.6780599709519 1028.6837821949364 -172.02430234461713C1151.8537414594327 117.62945528171747 907.0258568829895 960.1085905534003 647.8003429976129 1138.6366587195446 "></path><path d="M998.7464737654527 -144.78503677305434C1116.0511968744972 131.07568477583584 882.88178299217 933.4367659869624 636.0003411965736 1103.4634975737663C389.11889940097706 1273.4902291605702 -68.97972374436699 947.2039963924922 -186.28444685341134 671.3432748436019C-303.5891699624556 395.4825532947116 -173.94377152243305 -50.64123427410004 72.93767027316346 -220.6679658609039C319.81911206875986 -390.6946974477077 881.4417506564087 -420.6457583219445 998.7464737654527 -144.78503677305434C1116.0511968744972 131.07568477583584 882.88178299217 933.4367659869624 636.0003411965736 1103.4634975737663 "></path><path d="M968.809104300813 -117.54577120149145C1080.248591254405 144.5219142699541 858.7376480661942 906.7649414205246 624.2002783603778 1068.290336427988C389.66290865456097 1229.8157314354517 -45.530783333515956 919.8438103057774 -156.97027028710795 657.7761248343318C-268.40975724070006 395.7084393628861 -145.24662872267857 -28.109158827484862 89.290740983138 -189.63455383494852C323.82811068895467 -351.1599488424122 857.3696173472208 -379.61345667293716 968.809104300813 -117.54577120149145C1080.248591254405 144.5219142699541 858.7376480661942 906.7649414205246 624.2002783603778 1068.290336427988 "></path><path d="M938.8718569064856 -90.30650562992855C1044.4461077046255 157.9681437640727 834.5936352105311 880.0931168540865 612.4003375944944 1033.1171752822102C390.2070399784575 1186.1412337103334 -22.08172085235219 892.4836242190634 -127.65597165049212 644.2089748250619C-233.23022244863193 395.93432543106087 -116.54936385261163 -5.577083380869681 105.64393376342514 -158.6011418089932C327.8372313794621 -311.62520023711664 833.2976061083459 -338.5811550239298 938.8718569064856 -90.30650562992855C1044.4461077046255 157.9681437640727 834.5936352105311 880.0931168540865 612.4003375944944 1033.1171752822102 "></path><path d="M908.9345484770022 -63.06724005836577C1008.6435631196898 171.41437325819095 810.4495613197116 853.4212922876486 600.6003357934546 997.9440141364319C390.75111026719765 1142.466735985215 1.3672805936552095 865.1234381323488 -98.34173404903248 630.641824815792C-198.05074869172012 396.1602114992354 -87.8521600177009 16.9549920657455 121.99706550855603 -127.56772978303786C331.846291034813 -272.0904516318211 809.2255338343143 -297.5488533749224 908.9345484770022 -63.06724005836577C1008.6435631196898 171.41437325819095 810.4495613197116 853.4212922876486 600.6003357934546 997.9440141364319 "></path><path d="M878.9971790123623 -35.82806603953725C972.8409574995978 184.86051119957494 786.3054263937361 826.7493761684761 588.8002729572588 962.7707614379194C391.29511952078167 1098.7921467073622 24.81622100450636 837.7631604928999 -69.0275574827291 617.0745832537878C-162.8713359699645 396.3860060146757 -59.15501721794641 39.48697595962619 138.35013621853068 -96.53440930981685C335.85528965500794 -232.55579457925995 785.1534005251269 -256.5166432786494 878.9971790123623 -35.82806603953725C972.8409574995978 184.86051119957494 786.3054263937361 826.7493761684761 588.8002729572588 962.7707614379194 "></path><path d="M849.0598705828788 -8.588800467974352C937.0384129146619 198.3067406936933 762.1613525029165 800.077551602038 577.0002711562191 927.5976002921411C391.8391898095218 1055.1176489822437 48.26522245051376 810.4029744061854 -39.713319881269456 603.5074332445179C-127.69186221305267 396.6118920828502 -30.457813383035727 62.019051406241374 154.7032679636617 -65.50099728386152C339.864349310359 -193.02104597396436 761.0813282510953 -215.48434162964202 849.0598705828788 -8.588800467974352C937.0384129146619 198.3067406936933 762.1613525029165 800.077551602038 577.0002711562191 927.5976002921411 "></path><path d="M819.122531635817 18.650465103588544C901.235837812148 211.75297018781157 738.0172480945189 773.4057270356002 565.2002388376014 892.424439146363C392.383229580684 1011.4431512571257 71.71419337894304 783.0427883194709 -10.399112797387943 589.940283235248C-92.51241897371892 396.83777815102474 -1.7606400657031145 84.55112685285656 171.05636919121434 -34.467585257906194C343.8733784481319 -153.48629736866883 737.0092254594861 -174.4520399806346 819.122531635817 18.650465103588544C901.235837812148 211.75297018781157 738.0172480945189 773.4057270356002 565.2002388376014 892.424439146363 "></path><path d="M789.1852232063334 45.889730675151384C865.4332932272123 225.19919968193005 713.8731742036994 746.7339024691623 553.4002370365619 857.251278000585C392.92729986942413 967.7686535320072 95.16319482495044 755.6826022327566 18.915124804071695 576.3731332259781C-57.332945216807104 397.0636642191994 26.936563769207567 107.08320229947174 187.40950093634524 -3.4341732319508083C347.8824381034831 -113.9515487633733 712.9371531854547 -133.41973833162723 789.1852232063334 45.889730675151384C865.4332932272123 225.19919968193005 713.8731742036994 746.7339024691623 553.4002370365619 857.251278000585 "></path><path d="M759.2478842592716 73.12899624671428C829.6307181246984 238.6454291760483 689.7290697953022 720.0620779027242 541.6002047179442 822.0781168548065C393.47133964058617 924.0941558068889 118.61216575337977 728.3224161460421 48.22933188795321 562.8059832167079C-22.15350197747341 397.2895502873739 55.63373708654018 129.6152777460868 203.762602163898 27.59923879400452C351.8914672412559 -74.41680015807776 688.8650503938452 -92.38743668261986 759.2478842592716 73.12899624671428C829.6307181246984 238.6454291760483 689.7290697953022 720.0620779027242 541.6002047179442 822.0781168548065 "></path><path d="M729.31054531221 100.36826181827712C793.8281430221843 252.09165867016668 665.5849653869044 693.3902533362864 529.8001723993264 786.9049557090284C394.0153794117483 880.4196580817706 142.06113668180905 700.9622300593278 77.54353897183466 549.2388332074381C13.02594126186034 397.51543635554845 84.33091040387279 152.14735319270198 220.11570339145078 58.632650819959906C355.90049637902894 -34.88205155278223 664.7929476022356 -51.35513503361244 729.31054531221 100.36826181827712C793.8281430221843 252.09165867016668 665.5849653869044 693.3902533362864 529.8001723993264 786.9049557090284 "></path><path d="M699.3732368827264 127.60746635468377C758.0255984372486 265.5378271291288 641.440891496085 666.7183677346922 518.0001705982868 751.7317335280941C394.5594497004886 836.7450993214961 165.5101381278165 673.601982937457 106.8577765732943 535.6716221630119C48.20541501877216 397.7412613885667 113.02811423878347 174.67936760416092 236.46883513658167 89.66600181075898C359.9095560343799 4.652636017357054 640.7208753282043 -10.322894419761326 699.3732368827264 127.60746635468377C758.0255984372486 265.5378271291288 641.440891496085 666.7183677346922 518.0001705982868 751.7317335280941 "></path><path d="M669.4359284532428 154.84673192624666C722.2230538523128 278.9840566232473 617.2968176052656 640.0465431682542 506.2001687972472 716.558572382316C395.10351998922874 793.0706015963776 188.9591395738239 646.2417968507426 136.17201417475394 522.1044721537419C83.38488877568403 397.9671474567414 141.7253180736942 197.2114430507761 252.82196688171257 120.69941383671437C363.91861568973104 44.18738462265259 616.648803054173 30.70940722924604 669.4359284532428 154.84673192624666C722.2230538523128 278.9840566232473 617.2968176052656 640.0465431682542 506.2001687972472 716.558572382316 "></path><path d="M639.4985895061811 182.0859974978095C686.4204787497989 292.43028611736554 593.152713196868 613.3747186018162 494.4001364786294 681.3854112365378C395.6475597603908 749.3961038712592 212.40811050225318 618.8816107640281 165.48622125863545 508.537322144472C118.56433201501773 398.193033524916 170.42249139102677 219.74351849739122 269.17506810926534 151.7328258626697C367.92764482750397 83.72213322794818 592.5767002625635 71.74170887825346 639.4985895061811 182.0859974978095C686.4204787497989 292.43028611736554 593.152713196868 613.3747186018162 494.4001364786294 681.3854112365378 "></path><path d="M609.5612658179085 209.3252630693724C650.617918906074 305.8765156114839 569.0086240472594 586.7028940353782 482.60011941880066 646.2122500907597C396.191614790342 705.721606146141 235.85709668947152 591.5214246773136 194.80044360130603 494.9701721352021C153.74379051314054 398.41891959309055 199.11967996714844 242.2755939440064 285.5281845956072 182.76623788862503C371.93668922406596 123.25688183324371 568.504612729743 112.77401052726083 609.5612658179085 209.3252630693724C650.617918906074 305.8765156114839 569.0086240472594 586.7028940353782 482.60011941880066 646.2122500907597 "></path><path d="M579.6239421296358 236.56451338214617C614.8153590623492 319.3227298468132 544.8645348976511 560.0310542101512 470.800102358972 611.0390736861923C396.7356698202931 662.0470931622335 259.30608287668986 564.1612233318101 224.1146659439766 481.40300686714295C188.9232490112633 398.644790402476 227.81686854327006 264.80765413183246 301.881301081949 213.79963465579135C375.94573362062795 162.79161517975018 544.4325251969226 153.80629691747913 579.6239421296358 236.56451338214617C614.8153590623492 319.3227298468132 544.8645348976511 560.0310542101512 470.800102358972 611.0390736861923 "></path><path d="M549.6866184413632 263.8037331773419C579.0127992186243 332.7689135645644 520.7204457480425 533.359183867346 459.0000852991434 575.865866764047C397.2797248502443 618.3725496607481 282.75506906390825 536.8009914687285 253.42888828664718 467.8358110815059C224.1027075093861 398.87063069428336 256.51405711939174 287.33968380208046 318.23441756829084 244.8330009053795C379.95477801718994 202.32631800867853 520.3604376641022 194.83855279011937 549.6866184413632 263.8037331773419C579.0127992186243 332.7689135645644 520.7204457480425 533.359183867346 459.0000852991434 575.865866764047 "></path><path d="M519.7492794943015 291.0429987489048C543.2102241161103 346.21514305868277 496.57634133964496 506.68735930090816 447.2000529805257 540.692705618269C397.8237646214063 574.6980519356296 306.2040399923375 509.4408053820141 282.7430953705287 454.268661072236C259.2821507487198 399.096516762458 285.21123043672435 309.87175924869564 334.5875187958436 275.8664129313348C383.9638071549629 241.86106661397406 496.28833487249267 235.87085443912673 519.7492794943015 291.0429987489048C543.2102241161103 346.21514305868277 496.57634133964496 506.68735930090816 447.2000529805257 540.692705618269 "></path><path d="M489.8119558060289 318.2822643204676C507.40766427238555 359.66137255280114 472.4322521900365 480.01553473447007 435.40003592069695 505.5195444724907C398.3678196513575 531.0235542105113 329.65302617955587 482.0806192952996 312.0573177131992 440.701511062966C294.4616092468426 399.32240283063254 313.90841901284597 332.40383469531076 350.94063528218544 306.8998249572902C387.9728515515249 281.3958152192696 472.21624733967224 276.9031560881341 489.8119558060289 318.2822643204676C507.40766427238555 359.66137255280114 472.4322521900365 480.01553473447007 435.40003592069695 505.5195444724907 "></path><path d="M459.8746473765453 345.5214993744524C471.6051196874497 373.1075715293414 448.288178299217 453.3436796504541 423.6000341196574 470.3463528091345C398.9118899400977 487.3490259678148 353.10202762556327 454.72040269100705 341.37155531465885 427.134330536118C329.64108300375443 399.548258381229 342.6056228477567 354.9358796243478 367.29376702731633 337.9332064656674C391.981911206876 320.93053330698706 448.14417506564087 317.93542721956334 459.8746473765453 345.5214993744524C471.6051196874497 373.1075715293414 448.288178299217 453.3436796504541 423.6000341196574 470.3463528091345 "></path><path d="M429.9373236882726 372.76074968722617C435.80255984372485 386.5537857646707 424.1440891496085 426.67183982522704 411.8000170598287 435.17317640456724C399.45594497004885 443.6745129839074 376.55101381278166 427.3602013455035 370.6857776573294 413.567165268059C364.82054150187724 399.7741291906145 371.3028114238783 377.4679398121739 383.64688351365817 368.96660323283373C395.990955603438 360.46526665349353 424.07208753282043 358.9677136097817 429.9373236882726 372.76074968722617C435.80255984372485 386.5537857646707 424.1440891496085 426.67183982522704 411.8000170598287 435.17317640456724 "></path></g></svg>