<svg xmlns="http://www.w3.org/2000/svg" version="1.1" xmlns:xlink="http://www.w3.org/1999/xlink" xmlns:svgjs="http://svgjs.dev/svgjs" viewBox="0 0 800 800" opacity="0.34" width="800" height="800"><g stroke-width="3.5" stroke="hsla(212, 72%, 59%, 1.00)" fill="none"><rect width="14.473684210526315" height="14.473684210526315" x="-7.2368421052631575" y="-7.2368421052631575" fill="hsla(212, 72%, 59%, 1.00)" stroke="none"></rect><rect width="14.473684210526315" height="14.473684210526315" x="107.04887218045113" y="-7.2368421052631575" fill="hsla(212, 72%, 59%, 1.00)" stroke="none"></rect><rect width="14.473684210526315" height="14.473684210526315" x="221.33458646616543" y="-7.2368421052631575" fill="hsla(212, 72%, 59%, 1.00)" stroke="none"></rect><rect width="14.473684210526315" height="14.473684210526315" x="335.6203007518797" y="-7.2368421052631575" fill="hsla(212, 72%, 59%, 1.00)" stroke="none"></rect><rect width="14.473684210526315" height="14.473684210526315" x="449.906015037594" y="-7.2368421052631575" fill="hsla(212, 72%, 59%, 1.00)" stroke="none"></rect><rect width="14.473684210526315" height="14.473684210526315" x="564.1917293233083" y="-7.2368421052631575" fill="hsla(212, 72%, 59%, 1.00)" stroke="none"></rect><rect width="14.473684210526315" height="14.473684210526315" x="678.4774436090227" y="-7.2368421052631575" fill="hsla(212, 72%, 59%, 1.00)" stroke="none"></rect><rect width="14.473684210526315" height="14.473684210526315" x="792.763157894737" y="-7.2368421052631575" fill="hsla(212, 72%, 59%, 1.00)" stroke="none"></rect><rect width="14.473684210526315" height="14.473684210526315" x="-7.2368421052631575" y="107.04887218045113" fill="hsla(212, 72%, 59%, 1.00)" stroke="none"></rect><rect width="14.473684210526315" height="14.473684210526315" x="107.04887218045113" y="107.04887218045113" fill="hsla(212, 72%, 59%, 1.00)" stroke="none"></rect><rect width="14.473684210526315" height="14.473684210526315" x="221.33458646616543" y="107.04887218045113" fill="hsla(212, 72%, 59%, 1.00)" stroke="none" transform="rotate(45, 228.57142857142858, 114.28571428571429)"></rect><rect width="14.473684210526315" height="14.473684210526315" x="335.6203007518797" y="107.04887218045113" fill="hsla(212, 72%, 59%, 1.00)" stroke="none" transform="rotate(45, 342.8571428571429, 114.28571428571429)"></rect><rect width="14.473684210526315" height="14.473684210526315" x="449.906015037594" y="107.04887218045113" fill="hsla(212, 72%, 59%, 1.00)" stroke="none" transform="rotate(45, 457.14285714285717, 114.28571428571429)"></rect><rect width="14.473684210526315" height="14.473684210526315" x="564.1917293233083" y="107.04887218045113" fill="hsla(212, 72%, 59%, 1.00)" stroke="none"></rect><rect width="14.473684210526315" height="14.473684210526315" x="678.4774436090227" y="107.04887218045113" fill="hsla(212, 72%, 59%, 1.00)" stroke="none"></rect><rect width="14.473684210526315" height="14.473684210526315" x="792.763157894737" y="107.04887218045113" fill="hsla(212, 72%, 59%, 1.00)" stroke="none"></rect><rect width="14.473684210526315" height="14.473684210526315" x="-7.2368421052631575" y="221.33458646616543" fill="hsla(212, 72%, 59%, 1.00)" stroke="none"></rect><rect width="14.473684210526315" height="14.473684210526315" x="107.04887218045113" y="221.33458646616543" fill="hsla(212, 72%, 59%, 1.00)" stroke="none"></rect><rect width="14.473684210526315" height="14.473684210526315" x="221.33458646616543" y="221.33458646616543" fill="hsla(212, 72%, 59%, 1.00)" stroke="none"></rect><rect width="14.473684210526315" height="14.473684210526315" x="335.6203007518797" y="221.33458646616543" fill="hsla(212, 72%, 59%, 1.00)" stroke="none"></rect><rect width="14.473684210526315" height="14.473684210526315" x="449.906015037594" y="221.33458646616543" fill="hsla(212, 72%, 59%, 1.00)" stroke="none" transform="rotate(45, 457.14285714285717, 228.57142857142858)"></rect><rect width="14.473684210526315" height="14.473684210526315" x="564.1917293233083" y="221.33458646616543" fill="hsla(212, 72%, 59%, 1.00)" stroke="none"></rect><rect width="14.473684210526315" height="14.473684210526315" x="678.4774436090227" y="221.33458646616543" fill="hsla(212, 72%, 59%, 1.00)" stroke="none"></rect><rect width="14.473684210526315" height="14.473684210526315" x="792.763157894737" y="221.33458646616543" fill="hsla(212, 72%, 59%, 1.00)" stroke="none"></rect><rect width="14.473684210526315" height="14.473684210526315" x="-7.2368421052631575" y="335.6203007518797" fill="hsla(212, 72%, 59%, 1.00)" stroke="none"></rect><rect width="14.473684210526315" height="14.473684210526315" x="107.04887218045113" y="335.6203007518797" fill="hsla(212, 72%, 59%, 1.00)" stroke="none"></rect><rect width="14.473684210526315" height="14.473684210526315" x="221.33458646616543" y="335.6203007518797" fill="hsla(212, 72%, 59%, 1.00)" stroke="none"></rect><rect width="14.473684210526315" height="14.473684210526315" x="335.6203007518797" y="335.6203007518797" fill="hsla(212, 72%, 59%, 1.00)" stroke="none" transform="rotate(45, 342.8571428571429, 342.8571428571429)"></rect><rect width="14.473684210526315" height="14.473684210526315" x="449.906015037594" y="335.6203007518797" fill="hsla(212, 72%, 59%, 1.00)" stroke="none" transform="rotate(45, 457.14285714285717, 342.8571428571429)"></rect><rect width="14.473684210526315" height="14.473684210526315" x="564.1917293233083" y="335.6203007518797" fill="hsla(212, 72%, 59%, 1.00)" stroke="none" transform="rotate(45, 571.4285714285714, 342.8571428571429)"></rect><rect width="14.473684210526315" height="14.473684210526315" x="678.4774436090227" y="335.6203007518797" fill="hsla(212, 72%, 59%, 1.00)" stroke="none"></rect><rect width="14.473684210526315" height="14.473684210526315" x="792.763157894737" y="335.6203007518797" fill="hsla(212, 72%, 59%, 1.00)" stroke="none"></rect><rect width="14.473684210526315" height="14.473684210526315" x="-7.2368421052631575" y="449.906015037594" fill="hsla(212, 72%, 59%, 1.00)" stroke="none"></rect><rect width="14.473684210526315" height="14.473684210526315" x="107.04887218045113" y="449.906015037594" fill="hsla(212, 72%, 59%, 1.00)" stroke="none"></rect><rect width="14.473684210526315" height="14.473684210526315" x="221.33458646616543" y="449.906015037594" fill="hsla(212, 72%, 59%, 1.00)" stroke="none"></rect><rect width="14.473684210526315" height="14.473684210526315" x="335.6203007518797" y="449.906015037594" fill="hsla(212, 72%, 59%, 1.00)" stroke="none"></rect><rect width="14.473684210526315" height="14.473684210526315" x="449.906015037594" y="449.906015037594" fill="hsla(212, 72%, 59%, 1.00)" stroke="none"></rect><rect width="14.473684210526315" height="14.473684210526315" x="564.1917293233083" y="449.906015037594" fill="hsla(212, 72%, 59%, 1.00)" stroke="none"></rect><rect width="14.473684210526315" height="14.473684210526315" x="678.4774436090227" y="449.906015037594" fill="hsla(212, 72%, 59%, 1.00)" stroke="none" transform="rotate(45, 685.7142857142858, 457.14285714285717)"></rect><rect width="14.473684210526315" height="14.473684210526315" x="792.763157894737" y="449.906015037594" fill="hsla(212, 72%, 59%, 1.00)" stroke="none"></rect><rect width="14.473684210526315" height="14.473684210526315" x="-7.2368421052631575" y="564.1917293233083" fill="hsla(212, 72%, 59%, 1.00)" stroke="none"></rect><rect width="14.473684210526315" height="14.473684210526315" x="107.04887218045113" y="564.1917293233083" fill="hsla(212, 72%, 59%, 1.00)" stroke="none"></rect><rect width="14.473684210526315" height="14.473684210526315" x="221.33458646616543" y="564.1917293233083" fill="hsla(212, 72%, 59%, 1.00)" stroke="none"></rect><rect width="14.473684210526315" height="14.473684210526315" x="335.6203007518797" y="564.1917293233083" fill="hsla(212, 72%, 59%, 1.00)" stroke="none"></rect><rect width="14.473684210526315" height="14.473684210526315" x="449.906015037594" y="564.1917293233083" fill="hsla(212, 72%, 59%, 1.00)" stroke="none"></rect><rect width="14.473684210526315" height="14.473684210526315" x="564.1917293233083" y="564.1917293233083" fill="hsla(212, 72%, 59%, 1.00)" stroke="none"></rect><rect width="14.473684210526315" height="14.473684210526315" x="678.4774436090227" y="564.1917293233083" fill="hsla(212, 72%, 59%, 1.00)" stroke="none"></rect><rect width="14.473684210526315" height="14.473684210526315" x="792.763157894737" y="564.1917293233083" fill="hsla(212, 72%, 59%, 1.00)" stroke="none"></rect><rect width="14.473684210526315" height="14.473684210526315" x="-7.2368421052631575" y="678.4774436090227" fill="hsla(212, 72%, 59%, 1.00)" stroke="none"></rect><rect width="14.473684210526315" height="14.473684210526315" x="107.04887218045113" y="678.4774436090227" fill="hsla(212, 72%, 59%, 1.00)" stroke="none"></rect><rect width="14.473684210526315" height="14.473684210526315" x="221.33458646616543" y="678.4774436090227" fill="hsla(212, 72%, 59%, 1.00)" stroke="none"></rect><rect width="14.473684210526315" height="14.473684210526315" x="335.6203007518797" y="678.4774436090227" fill="hsla(212, 72%, 59%, 1.00)" stroke="none"></rect><rect width="14.473684210526315" height="14.473684210526315" x="449.906015037594" y="678.4774436090227" fill="hsla(212, 72%, 59%, 1.00)" stroke="none"></rect><rect width="14.473684210526315" height="14.473684210526315" x="564.1917293233083" y="678.4774436090227" fill="hsla(212, 72%, 59%, 1.00)" stroke="none"></rect><rect width="14.473684210526315" height="14.473684210526315" x="678.4774436090227" y="678.4774436090227" fill="hsla(212, 72%, 59%, 1.00)" stroke="none" transform="rotate(45, 685.7142857142858, 685.7142857142858)"></rect><rect width="14.473684210526315" height="14.473684210526315" x="792.763157894737" y="678.4774436090227" fill="hsla(212, 72%, 59%, 1.00)" stroke="none"></rect><rect width="14.473684210526315" height="14.473684210526315" x="-7.2368421052631575" y="792.763157894737" fill="hsla(212, 72%, 59%, 1.00)" stroke="none"></rect><rect width="14.473684210526315" height="14.473684210526315" x="107.04887218045113" y="792.763157894737" fill="hsla(212, 72%, 59%, 1.00)" stroke="none"></rect><rect width="14.473684210526315" height="14.473684210526315" x="221.33458646616543" y="792.763157894737" fill="hsla(212, 72%, 59%, 1.00)" stroke="none"></rect><rect width="14.473684210526315" height="14.473684210526315" x="335.6203007518797" y="792.763157894737" fill="hsla(212, 72%, 59%, 1.00)" stroke="none"></rect><rect width="14.473684210526315" height="14.473684210526315" x="449.906015037594" y="792.763157894737" fill="hsla(212, 72%, 59%, 1.00)" stroke="none"></rect><rect width="14.473684210526315" height="14.473684210526315" x="564.1917293233083" y="792.763157894737" fill="hsla(212, 72%, 59%, 1.00)" stroke="none"></rect><rect width="14.473684210526315" height="14.473684210526315" x="678.4774436090227" y="792.763157894737" fill="hsla(212, 72%, 59%, 1.00)" stroke="none"></rect><rect width="14.473684210526315" height="14.473684210526315" x="792.763157894737" y="792.763157894737" fill="hsla(212, 72%, 59%, 1.00)" stroke="none"></rect></g></svg>